<svg width="33" height="33" viewBox="0 0 33 33" fill="none" xmlns="http://www.w3.org/2000/svg">
<path d="M16.0336 0.0223494C11.7901 0.0193843 7.71926 1.70225 4.71659 4.70073C1.71391 7.69922 0.0253545 11.7677 0.0223894 16.0112C0.0194243 20.2546 1.70229 24.3255 4.70077 27.3281C7.69926 30.3308 11.7677 32.0194 16.0112 32.0223C20.2547 32.0253 24.3255 30.3424 27.3282 27.344C30.3309 24.3455 32.0194 20.277 32.0224 16.0335C32.0253 11.7901 30.3425 7.71922 27.344 4.71655C24.3455 1.71387 20.277 0.0253145 16.0336 0.0223494V0.0223494ZM23.0231 15.0272C23.2883 15.0274 23.5426 15.133 23.73 15.3206C23.9174 15.5083 24.0226 15.7627 24.0224 16.0279C24.0222 16.2932 23.9167 16.5474 23.729 16.7348C23.5413 16.9222 23.2869 17.0274 23.0217 17.0272L11.4357 17.0191L15.7267 21.3141C15.8196 21.4072 15.8933 21.5176 15.9435 21.6391C15.9937 21.7606 16.0195 21.8909 16.0195 22.0223C16.0194 22.1538 15.9934 22.284 15.943 22.4055C15.8926 22.5269 15.8187 22.6372 15.7257 22.7301C15.6327 22.8231 15.5222 22.8967 15.4007 22.947C15.2792 22.9972 15.149 23.023 15.0175 23.0229C14.886 23.0228 14.7558 22.9968 14.6344 22.9464C14.5129 22.896 14.4026 22.8222 14.3097 22.7292L8.31389 16.725C8.22083 16.632 8.14702 16.5216 8.09669 16.4001C8.04637 16.2785 8.02051 16.1483 8.0206 16.0168C8.02069 15.8852 8.04673 15.755 8.09723 15.6335C8.14773 15.5121 8.22169 15.4018 8.31488 15.309L14.3191 9.31315C14.507 9.12551 14.7617 9.0202 15.0273 9.02038C15.2928 9.02057 15.5474 9.12624 15.7351 9.31414C15.9227 9.50205 16.028 9.7568 16.0278 10.0223C16.0277 10.2879 15.922 10.5425 15.7341 10.7301L11.4371 15.0191L23.0231 15.0272Z" fill="#333333"/>
</svg>
