<svg width="24" height="20" viewBox="0 0 24 20" fill="none" xmlns="http://www.w3.org/2000/svg">
<path d="M24 2.39103C23.1174 2.77175 22.157 3.04576 21.1676 3.15248C22.1948 2.54227 22.9639 1.57824 23.3308 0.441265C22.367 1.01463 21.3111 1.41668 20.2101 1.62958C19.7499 1.1376 19.1933 0.74567 18.575 0.478205C17.9567 0.21074 17.2899 0.073475 16.6163 0.0749631C13.8906 0.0749631 11.6986 2.28431 11.6986 4.99553C11.6986 5.37625 11.7447 5.75697 11.8197 6.12327C7.73849 5.90984 4.09855 3.96007 1.67864 0.974855C1.23771 1.72798 1.00665 2.58551 1.00949 3.45821C1.00949 5.1657 1.87766 6.67129 3.20154 7.55676C2.42136 7.52603 1.65944 7.31159 0.977767 6.93087V6.99144C0.977767 9.3825 2.66795 11.364 4.92056 11.8197C4.49761 11.9296 4.06251 11.9858 3.62553 11.987C3.30537 11.987 3.00252 11.9553 2.69679 11.912C3.31979 13.8618 5.134 15.2779 7.29432 15.3241C5.60413 16.648 3.48708 17.4267 1.18832 17.4267C0.775868 17.4267 0.395145 17.4123 0 17.3662C2.18051 18.765 4.7677 19.5726 7.5539 19.5726C16.599 19.5726 21.5484 12.0793 21.5484 5.57526C21.5484 5.36183 21.5484 5.14839 21.5339 4.93496C22.4915 4.23408 23.3308 3.36591 24 2.39103Z" fill="#333333"/>
</svg>
