<svg width="33" height="33" viewBox="0 0 33 33" fill="none" xmlns="http://www.w3.org/2000/svg">
<rect x="5" y="7" width="20" height="17" fill="white"/>
<path d="M16.0223 0.01118C11.7789 0.00821486 7.70803 1.69108 4.70535 4.68957C1.70268 7.68805 0.014124 11.7565 0.0111589 16C0.00819378 20.2435 1.69106 24.3143 4.68954 27.317C7.68803 30.3197 11.7565 32.0082 16 32.0112C20.2434 32.0141 24.3143 30.3313 27.317 27.3328C30.3196 24.3343 32.0082 20.2658 32.0112 16.0224C32.0141 11.7789 30.3313 7.70805 27.3328 4.70538C24.3343 1.7027 20.2658 0.0141451 16.0223 0.01118V0.01118ZM23.0119 15.0161C23.2771 15.0163 23.5313 15.1218 23.7188 15.3095C23.9062 15.4971 24.0113 15.7515 24.0112 16.0168C24.011 16.282 23.9054 16.5363 23.7178 16.7237C23.5301 16.9111 23.2757 17.0163 23.0105 17.0161L11.4245 17.008L15.7155 21.303C15.8084 21.396 15.882 21.5064 15.9323 21.628C15.9825 21.7495 16.0083 21.8797 16.0082 22.0112C16.0081 22.1427 15.9821 22.2728 15.9317 22.3943C15.8813 22.5157 15.8075 22.6261 15.7145 22.719C15.6214 22.8119 15.511 22.8856 15.3895 22.9358C15.268 22.986 15.1378 23.0118 15.0063 23.0117C14.8748 23.0116 14.7446 22.9857 14.6231 22.9353C14.5017 22.8849 14.3914 22.811 14.2985 22.718L8.30266 16.7138C8.2096 16.6208 8.13579 16.5104 8.08546 16.3889C8.03514 16.2674 8.00928 16.1371 8.00937 16.0056C8.00946 15.8741 8.0355 15.7438 8.086 15.6224C8.1365 15.5009 8.21046 15.3906 8.30365 15.2978L14.3078 9.30198C14.4957 9.11434 14.7505 9.00903 15.016 9.00922C15.2816 9.0094 15.5362 9.11507 15.7238 9.30297C15.9115 9.49088 16.0168 9.74563 16.0166 10.0112C16.0164 10.2767 15.9108 10.5313 15.7229 10.719L11.4259 15.008L23.0119 15.0161Z" fill="#333333"/>
</svg>
