<svg width="16" height="25" viewBox="0 0 16 25" fill="none" xmlns="http://www.w3.org/2000/svg">
<path d="M15.2857 1.49806C15.2857 1.32131 15.2159 1.15179 15.0917 1.02681C14.9675 0.901827 14.799 0.831612 14.6234 0.831612H11.3117C9.64409 0.748027 8.0114 1.33197 6.77034 2.45585C5.52928 3.57973 4.78076 5.15219 4.68832 6.82964V10.4285H1.37663C1.20097 10.4285 1.0325 10.4987 0.908289 10.6237C0.784076 10.7486 0.714294 10.9182 0.714294 11.0949V14.5604C0.714294 14.7372 0.784076 14.9067 0.908289 15.0317C1.0325 15.1567 1.20097 15.2269 1.37663 15.2269H4.68832V24.1573C4.68832 24.334 4.7581 24.5036 4.88231 24.6285C5.00653 24.7535 5.17499 24.8237 5.35066 24.8237H9.32468C9.50035 24.8237 9.66881 24.7535 9.79303 24.6285C9.91724 24.5036 9.98702 24.334 9.98702 24.1573V15.2269H13.4577C13.605 15.229 13.7488 15.1817 13.8663 15.0924C13.9839 15.003 14.0685 14.8768 14.1068 14.7337L15.0605 11.2682C15.0869 11.1697 15.0904 11.0665 15.0709 10.9664C15.0513 10.8663 15.0092 10.7721 14.9478 10.691C14.8864 10.6099 14.8073 10.544 14.7166 10.4985C14.6259 10.453 14.526 10.429 14.4247 10.4285H9.98702V6.82964C10.02 6.49972 10.174 6.194 10.4189 5.97218C10.6638 5.75036 10.9822 5.62837 11.3117 5.63004H14.6234C14.799 5.63004 14.9675 5.55982 15.0917 5.43484C15.2159 5.30985 15.2857 5.14034 15.2857 4.96359V1.49806Z" fill="#333333"/>
</svg>
