<svg width="16" height="16" viewBox="0 0 16 16" fill="none" xmlns="http://www.w3.org/2000/svg">
<path d="M8.085 2.6625L5.665 5.1125C5.2625 5.51875 5.185 6.25 5.49 6.77187C5.8125 7.32812 6.44 7.4375 6.8725 7.01562L9.355 4.60313C9.53 4.43438 9.78 4.47188 9.9175 4.69063C10.055 4.90938 10.0225 5.22188 9.8475 5.39375L9.325 5.9L13.755 11H14.8C15.4625 11 16 10.3281 16 9.5V5.5C16 4.67188 15.4625 4 14.8 4H12.7825L12.685 3.92188L10.87 2.46875C10.4875 2.1625 10.04 2 9.585 2C9.04 2 8.51 2.23437 8.085 2.6625V2.6625ZM8.655 6.55L7.3625 7.80625C6.575 8.575 5.4325 8.375 4.8425 7.3625C4.2875 6.40938 4.4275 5.07813 5.16 4.3375L7.24 2.23438C6.95 2.08125 6.6375 2.00312 6.32 2.00312C5.85 2 5.3925 2.175 5 2.5L3.2 4H1.2C0.5375 4 0 4.67188 0 5.5V9.5C0 10.3281 0.5375 11 1.2 11H3.905L6.19 13.6062C6.68 14.1656 7.4375 14.1219 7.885 13.5094C8.0225 13.3187 8.115 13.0969 8.1625 12.8656L8.5875 13.3531C9.075 13.9125 9.835 13.8719 10.2825 13.2625C10.395 13.1094 10.4775 12.9312 10.53 12.7469C11.015 13.1531 11.675 13.0687 12.0825 12.5125C12.53 11.9031 12.4975 10.9531 12.01 10.3938L8.655 6.55V6.55Z" fill="#333333"/>
</svg>
