<svg width="24" height="25" viewBox="0 0 24 25" fill="none" xmlns="http://www.w3.org/2000/svg">
<g clip-path="url(#clip0_362_257)">
<path d="M12 0.82373C8.7435 0.82373 8.334 0.83873 7.0545 0.89573C5.775 0.95573 4.9035 1.15673 4.14 1.45373C3.33914 1.75496 2.61374 2.22747 2.0145 2.83823C1.40411 3.43777 0.931661 4.16309 0.63 4.96373C0.333 5.72573 0.1305 6.59873 0.072 7.87373C0.015 9.15623 0 9.56423 0 12.8252C0 16.0832 0.015 16.4912 0.072 17.7707C0.132 19.0487 0.333 19.9202 0.63 20.6837C0.9375 21.4727 1.347 22.1417 2.0145 22.8092C2.6805 23.4767 3.3495 23.8877 4.1385 24.1937C4.9035 24.4907 5.7735 24.6932 7.0515 24.7517C8.3325 24.8087 8.7405 24.8237 12 24.8237C15.2595 24.8237 15.666 24.8087 16.947 24.7517C18.2235 24.6917 19.098 24.4907 19.8615 24.1937C20.6618 23.8924 21.3867 23.4198 21.9855 22.8092C22.653 22.1417 23.0625 21.4727 23.37 20.6837C23.6655 19.9202 23.868 19.0487 23.928 17.7707C23.985 16.4912 24 16.0832 24 12.8237C24 9.56423 23.985 9.15623 23.928 7.87523C23.868 6.59873 23.6655 5.72573 23.37 4.96373C23.0684 4.16307 22.5959 3.43774 21.9855 2.83823C21.3864 2.22724 20.661 1.7547 19.86 1.45373C19.095 1.15673 18.222 0.95423 16.9455 0.89573C15.6645 0.83873 15.258 0.82373 11.997 0.82373H12.0015H12ZM10.9245 2.98673H12.0015C15.2055 2.98673 15.585 2.99723 16.8495 3.05573C18.0195 3.10823 18.6555 3.30473 19.0785 3.46823C19.638 3.68573 20.0385 3.94673 20.4585 4.36673C20.8785 4.78673 21.138 5.18573 21.3555 5.74673C21.5205 6.16823 21.7155 6.80423 21.768 7.97423C21.8265 9.23873 21.8385 9.61823 21.8385 12.8207C21.8385 16.0232 21.8265 16.4042 21.768 17.6687C21.7155 18.8387 21.519 19.4732 21.3555 19.8962C21.1631 20.4173 20.856 20.8884 20.457 21.2747C20.037 21.6947 19.638 21.9542 19.077 22.1717C18.657 22.3367 18.021 22.5317 16.8495 22.5857C15.585 22.6427 15.2055 22.6562 12.0015 22.6562C8.7975 22.6562 8.4165 22.6427 7.152 22.5857C5.982 22.5317 5.3475 22.3367 4.9245 22.1717C4.40325 21.9796 3.93169 21.6731 3.5445 21.2747C3.14513 20.8878 2.83758 20.4162 2.6445 19.8947C2.481 19.4732 2.2845 18.8372 2.232 17.6672C2.175 16.4027 2.163 16.0232 2.163 12.8177C2.163 9.61373 2.175 9.23573 2.232 7.97123C2.286 6.80123 2.481 6.16523 2.646 5.74223C2.8635 5.18273 3.1245 4.78223 3.5445 4.36223C3.9645 3.94223 4.3635 3.68273 4.9245 3.46523C5.3475 3.30023 5.982 3.10523 7.152 3.05123C8.259 3.00023 8.688 2.98523 10.9245 2.98373V2.98673V2.98673ZM18.4065 4.97873C18.2174 4.97873 18.0301 5.01598 17.8554 5.08834C17.6807 5.16071 17.522 5.26678 17.3883 5.4005C17.2545 5.53421 17.1485 5.69296 17.0761 5.86767C17.0037 6.04238 16.9665 6.22963 16.9665 6.41873C16.9665 6.60783 17.0037 6.79509 17.0761 6.96979C17.1485 7.1445 17.2545 7.30325 17.3883 7.43696C17.522 7.57068 17.6807 7.67675 17.8554 7.74912C18.0301 7.82148 18.2174 7.85873 18.4065 7.85873C18.7884 7.85873 19.1547 7.70702 19.4247 7.43696C19.6948 7.16691 19.8465 6.80064 19.8465 6.41873C19.8465 6.03682 19.6948 5.67055 19.4247 5.4005C19.1547 5.13044 18.7884 4.97873 18.4065 4.97873V4.97873ZM12.0015 6.66173C11.1841 6.64898 10.3723 6.79896 9.61347 7.10294C8.85459 7.40693 8.16377 7.85884 7.58123 8.43237C6.99868 9.00589 6.53605 9.68958 6.22026 10.4436C5.90448 11.1977 5.74185 12.007 5.74185 12.8245C5.74185 13.642 5.90448 14.4513 6.22026 15.2053C6.53605 15.9594 6.99868 16.6431 7.58123 17.2166C8.16377 17.7901 8.85459 18.242 9.61347 18.546C10.3723 18.85 11.1841 19 12.0015 18.9872C13.6193 18.962 15.1623 18.3016 16.2975 17.1486C17.4326 15.9956 18.0689 14.4425 18.0689 12.8245C18.0689 11.2065 17.4326 9.65335 16.2975 8.50036C15.1623 7.34736 13.6193 6.68697 12.0015 6.66173V6.66173ZM12.0015 8.82323C13.0625 8.82323 14.08 9.24471 14.8303 9.99495C15.5805 10.7452 16.002 11.7627 16.002 12.8237C16.002 13.8847 15.5805 14.9023 14.8303 15.6525C14.08 16.4028 13.0625 16.8242 12.0015 16.8242C10.9405 16.8242 9.92296 16.4028 9.17272 15.6525C8.42248 14.9023 8.001 13.8847 8.001 12.8237C8.001 11.7627 8.42248 10.7452 9.17272 9.99495C9.92296 9.24471 10.9405 8.82323 12.0015 8.82323V8.82323Z" fill="#333333"/>
</g>
<defs>
<clipPath id="clip0_362_257">
<rect width="24" height="24" fill="white" transform="translate(0 0.82373)"/>
</clipPath>
</defs>
</svg>
