<svg width="16" height="16" viewBox="0 0 16 16" fill="none" xmlns="http://www.w3.org/2000/svg">
<g clip-path="url(#clip0_404_52)">
<path d="M14.952 9.8752L13.5704 8.6448C13.1704 8.2888 13.1704 7.7056 13.5704 7.3496L14.952 6.1184C15.352 5.7624 15.2456 5.4312 14.7152 5.3792L12.8832 5.2056C12.3536 5.156 12.0672 4.6992 12.2504 4.1928L13.2224 1.4864C13.4048 0.978403 13.1816 0.794403 12.7272 1.0752L10.5664 2.4112C10.4594 2.47826 10.3398 2.52273 10.2149 2.54187C10.0901 2.561 9.96263 2.55441 9.84043 2.52249C9.71823 2.49058 9.60384 2.43401 9.5043 2.35626C9.40476 2.27852 9.32217 2.18124 9.26161 2.0704L8.47921 0.673603C8.21601 0.203203 7.78161 0.201603 7.51361 0.667203L6.78641 1.9312C6.51681 2.3992 5.90001 2.5976 5.41601 2.376L4.13601 1.7888C3.64961 1.5648 3.27761 1.8224 3.30641 2.3616L3.37521 3.6536C3.40481 4.1928 3.00641 4.7472 2.49201 4.8864L1.25601 5.2176C0.742406 5.3568 0.648006 5.7616 1.04801 6.1176L2.42961 7.3488C2.82961 7.7048 2.82961 8.288 2.42961 8.644L1.04801 9.8752C0.648006 10.2312 0.753606 10.5768 1.28241 10.6408L2.95841 10.844C3.48721 10.908 3.78161 11.38 3.61281 11.8928L2.75361 14.4992C2.58481 15.012 2.82561 15.2104 3.28801 14.9432L5.25841 13.8024C5.48828 13.6751 5.75733 13.638 6.01307 13.6984C6.2688 13.7587 6.49289 13.9122 6.64161 14.1288L7.45921 15.36C7.75681 15.8072 8.20401 15.7832 8.45121 15.3056L9.17041 13.9192C9.29014 13.6892 9.49498 13.515 9.74127 13.4339C9.98755 13.3528 10.2558 13.371 10.4888 13.4848L11.876 14.1784C12.3544 14.416 12.7216 14.1704 12.6928 13.6328L12.6232 12.3392C12.5952 11.8 12.992 11.2472 13.508 11.108L14.7424 10.7752C15.2576 10.636 15.352 10.2312 14.952 9.8752ZM8.80001 11.2H7.20001V9.6H8.80001V11.2ZM8.80001 8.8H7.20001V4.8H8.80001V8.8Z" fill="#333333"/>
</g>
<defs>
<clipPath id="clip0_404_52">
<rect width="16" height="16" fill="white"/>
</clipPath>
</defs>
</svg>
