<svg width="24" height="25" viewBox="0 0 24 25" fill="none" xmlns="http://www.w3.org/2000/svg">
<g clip-path="url(#clip0_404_32)">
<path fill-rule="evenodd" clip-rule="evenodd" d="M17.415 15.2058C17.117 15.0568 15.656 14.3388 15.384 14.2388C15.112 14.1398 14.914 14.0908 14.715 14.3888C14.517 14.6848 13.948 15.3548 13.775 15.5528C13.601 15.7518 13.428 15.7758 13.131 15.6278C12.834 15.4778 11.876 15.1648 10.741 14.1528C9.858 13.3648 9.261 12.3918 9.088 12.0938C8.915 11.7968 9.069 11.6358 9.218 11.4878C9.352 11.3548 9.515 11.1408 9.664 10.9678C9.813 10.7938 9.862 10.6698 9.961 10.4708C10.061 10.2728 10.011 10.0998 9.936 9.95077C9.862 9.80177 9.268 8.33877 9.02 7.74377C8.779 7.16477 8.534 7.24377 8.352 7.23377C8.178 7.22577 7.98 7.22377 7.782 7.22377C7.584 7.22377 7.262 7.29777 6.99 7.59577C6.717 7.89277 5.95 8.61177 5.95 10.0748C5.95 11.5368 7.014 12.9498 7.163 13.1488C7.312 13.3468 9.258 16.3488 12.239 17.6358C12.949 17.9418 13.502 18.1248 13.933 18.2608C14.645 18.4878 15.293 18.4558 15.805 18.3788C16.375 18.2938 17.563 17.6598 17.811 16.9658C18.058 16.2718 18.058 15.6768 17.984 15.5528C17.91 15.4288 17.712 15.3548 17.414 15.2058H17.415ZM11.993 22.6088H11.989C10.2184 22.6091 8.48037 22.1331 6.957 21.2308L6.597 21.0168L2.855 21.9988L3.854 18.3508L3.619 17.9768C2.62914 16.4011 2.10529 14.5775 2.108 12.7168C2.11 7.26677 6.544 2.83277 11.997 2.83277C14.637 2.83277 17.119 3.86277 18.985 5.73077C19.9054 6.64735 20.6349 7.73734 21.1313 8.93767C21.6277 10.138 21.8811 11.4248 21.877 12.7238C21.875 18.1738 17.441 22.6088 11.993 22.6088V22.6088ZM20.405 4.31177C19.3032 3.20269 17.9922 2.32331 16.5481 1.72457C15.1039 1.12584 13.5553 0.819654 11.992 0.823771C5.438 0.823771 0.102 6.15877 0.1 12.7158C0.096963 14.8025 0.644374 16.8532 1.687 18.6608L0 24.8238L6.304 23.1698C8.04787 24.1199 10.0021 24.6177 11.988 24.6178H11.993C18.547 24.6178 23.883 19.2828 23.885 12.7248C23.8898 11.162 23.5848 9.61387 22.9874 8.1698C22.3901 6.72574 21.5124 5.41444 20.405 4.31177" fill="#333333"/>
</g>
<defs>
<clipPath id="clip0_404_32">
<rect width="24" height="24" fill="white" transform="translate(0 0.82373)"/>
</clipPath>
</defs>
</svg>
